<svg width="240" height="240" viewBox="0 0 240 240" fill="none" xmlns="http://www.w3.org/2000/svg">
  <rect width="240" height="240" rx="48" fill="#101820"/>
  <path d="M58 128H42C34 128 28 122 28 114C28 106 34 100 42 100H58V78C58 70 64 64 72 64C80 64 86 70 86 78V162C86 170 80 176 72 176C64 176 58 170 58 162V128Z" fill="#B8FF2C"/>
  <path d="M182 112H198C206 112 212 118 212 126C212 134 206 140 198 140H182V162C182 170 176 176 168 176C160 176 154 170 154 162V78C154 70 160 64 168 64C176 64 182 70 182 78V112Z" fill="#B8FF2C"/>
  <path d="M82 108H158V132H82V108Z" fill="#F7FBFF"/>
  <path d="M104 62H136L150 95H90L104 62Z" fill="#00D4FF"/>
  <path d="M90 145H150L136 178H104L90 145Z" fill="#00D4FF"/>
</svg>
